<svg width="20" height="19" viewBox="0 0 20 19" fill="none" xmlns="http://www.w3.org/2000/svg">
<g id="ico_rate">
<path id="Path" d="M9.06684 12.5051C8.99797 12.2839 8.79295 12.132 8.50428 12.0882L6.15144 11.7313L5.09914 9.50627C4.97006 9.2333 4.76823 9.07666 4.54545 9.07666C4.32268 9.07666 4.12084 9.2333 3.99177 9.50634L2.93961 11.7313L0.5867 12.0882C0.297963 12.132 0.0928707 12.2839 0.0240674 12.5051C-0.0447359 12.7262 0.0355808 12.9749 0.244488 13.1874L1.94709 14.9194L1.54509 17.3651C1.4937 17.6779 1.5813 17.8653 1.66383 17.9675C1.76066 18.0873 1.90187 18.1534 2.06146 18.1534C2.18152 18.1534 2.30921 18.1167 2.44106 18.0444L4.54545 16.8897L6.64999 18.0444C6.78177 18.1167 6.90946 18.1534 7.02952 18.1534H7.02958C7.18911 18.1534 7.33039 18.0873 7.42721 17.9675C7.50968 17.8653 7.59735 17.6779 7.54589 17.3651L7.14396 14.9194L8.84649 13.1874C9.05533 12.9749 9.13564 12.7262 9.06684 12.5051Z" fill="#FC8B56"/>
<path id="Path Copy 2" d="M19.976 12.5051C19.9071 12.2839 19.7021 12.132 19.4135 12.0882L17.0606 11.7313L16.0083 9.50627C15.8792 9.2333 15.6774 9.07666 15.4546 9.07666C15.2319 9.07666 15.03 9.2333 14.9009 9.50634L13.8488 11.7313L11.4959 12.0882C11.2071 12.132 11.0021 12.2839 10.9332 12.5051C10.8644 12.7262 10.9448 12.9749 11.1537 13.1874L12.8563 14.9194L12.4543 17.3651C12.4029 17.6779 12.4905 17.8653 12.573 17.9675C12.6698 18.0873 12.811 18.1534 12.9706 18.1534C13.0907 18.1534 13.2184 18.1167 13.3502 18.0444L15.4546 16.8897L17.5592 18.0444C17.6909 18.1167 17.8186 18.1534 17.9387 18.1534H17.9388C18.0983 18.1534 18.2396 18.0873 18.3364 17.9675C18.4189 17.8653 18.5065 17.6779 18.4551 17.3651L18.0531 14.9194L19.7557 13.1874C19.9645 12.9749 20.0448 12.7262 19.976 12.5051Z" fill="#FEDCCC"/>
<path id="Path Copy 3" d="M14.5214 3.42842C14.4526 3.20728 14.2475 3.05534 13.9589 3.01155L11.606 2.65469L10.5537 0.429611C10.4247 0.156643 10.2228 0 10 0C9.77727 0 9.57543 0.156643 9.44636 0.429684L8.3942 2.65469L6.04129 3.01155C5.75255 3.05534 5.54746 3.20728 5.47866 3.42842C5.40985 3.64956 5.49017 3.89828 5.69908 4.11073L7.40168 5.84271L6.99968 8.28842C6.94829 8.6012 7.03589 8.78861 7.11842 8.89082C7.21525 9.01069 7.35646 9.0767 7.51605 9.0767C7.63611 9.0767 7.7638 9.04 7.89565 8.96769L10 7.81306L12.1046 8.96776C12.2364 9.04008 12.364 9.0767 12.4841 9.0767H12.4842C12.6437 9.0767 12.785 9.01069 12.8818 8.89082C12.9643 8.78868 13.0519 8.6012 13.0005 8.28842L12.5985 5.84271L14.3011 4.11073C14.5099 3.89828 14.5902 3.64956 14.5214 3.42842Z" fill="#FEDCCC"/>
</g>
</svg>
